<mxfile host="app.diagrams.net" modified="2021-04-05T13:44:04.760Z" agent="5.0 (Macintosh; Intel Mac OS X 10_15_3) AppleWebKit/537.36 (KHTML, like Gecko) Chrome/89.0.4389.114 Safari/537.36" etag="w0EY4j2EpA_WmF5ha00B" version="14.5.7" type="github">
  <diagram id="-VE1DlsIKemhwOQ85xQe" name="Page-1">
    <mxGraphModel dx="2066" dy="1154" grid="1" gridSize="10" guides="1" tooltips="1" connect="1" arrows="1" fold="1" page="1" pageScale="1" pageWidth="850" pageHeight="1100" background="#DAD2D8" math="0" shadow="0">
      <root>
        <mxCell id="0" />
        <mxCell id="1" parent="0" />
        <mxCell id="6c9obPqAfT_eIUfNTo_A-2" value="" style="rounded=0;whiteSpace=wrap;html=1;sketch=0;strokeColor=#0F8B8D;fillColor=#FAE5C7;fontSize=4;fontColor=#143642;" vertex="1" parent="1">
          <mxGeometry x="90" y="250" width="740" height="430" as="geometry" />
        </mxCell>
        <mxCell id="n6P6MmhynRXJax2jx8tK-43" style="edgeStyle=orthogonalEdgeStyle;rounded=0;orthogonalLoop=1;jettySize=auto;html=1;fontColor=#143642;labelBackgroundColor=#DAD2D8;strokeColor=#A8201A;" parent="1" source="n6P6MmhynRXJax2jx8tK-2" target="n6P6MmhynRXJax2jx8tK-32" edge="1">
          <mxGeometry relative="1" as="geometry">
            <mxPoint x="480" y="420" as="targetPoint" />
          </mxGeometry>
        </mxCell>
        <mxCell id="n6P6MmhynRXJax2jx8tK-2" value="IAS" style="shape=cylinder3;whiteSpace=wrap;html=1;boundedLbl=1;backgroundOutline=1;size=15;fillColor=#FAE5C7;strokeColor=#0F8B8D;fontColor=#143642;" parent="1" vertex="1">
          <mxGeometry x="450" y="300" width="60" height="80" as="geometry" />
        </mxCell>
        <mxCell id="n6P6MmhynRXJax2jx8tK-17" value="" style="shape=image;html=1;verticalAlign=top;verticalLabelPosition=bottom;imageAspect=0;aspect=fixed;image=https://cdn0.iconfinder.com/data/icons/16x16-free-toolbar-icons/16/search_zoom.png;fontColor=#143642;labelBackgroundColor=#DAD2D8;fillColor=#FAE5C7;strokeColor=#0F8B8D;" parent="1" vertex="1">
          <mxGeometry x="475" y="315" width="50" height="50" as="geometry" />
        </mxCell>
        <mxCell id="n6P6MmhynRXJax2jx8tK-36" style="edgeStyle=orthogonalEdgeStyle;rounded=0;orthogonalLoop=1;jettySize=auto;html=1;entryX=0;entryY=0.559;entryDx=0;entryDy=0;entryPerimeter=0;fontColor=#143642;labelBackgroundColor=#DAD2D8;strokeColor=#A8201A;" parent="1" edge="1">
          <mxGeometry relative="1" as="geometry">
            <mxPoint x="540" y="481.03" as="sourcePoint" />
            <mxPoint x="680" y="481.03" as="targetPoint" />
          </mxGeometry>
        </mxCell>
        <mxCell id="n6P6MmhynRXJax2jx8tK-24" value="" style="html=1;verticalLabelPosition=bottom;align=center;verticalAlign=top;strokeWidth=2;strokeColor=#0F8B8D;shadow=0;dashed=0;shape=mxgraph.ios7.icons.settings;fontColor=#143642;labelBackgroundColor=#DAD2D8;fillColor=#FAE5C7;" parent="1" vertex="1">
          <mxGeometry x="500" y="455" width="40" height="40" as="geometry" />
        </mxCell>
        <mxCell id="n6P6MmhynRXJax2jx8tK-35" style="edgeStyle=orthogonalEdgeStyle;rounded=0;orthogonalLoop=1;jettySize=auto;html=1;fontColor=#143642;labelBackgroundColor=#DAD2D8;strokeColor=#A8201A;" parent="1" source="n6P6MmhynRXJax2jx8tK-26" target="n6P6MmhynRXJax2jx8tK-32" edge="1">
          <mxGeometry relative="1" as="geometry" />
        </mxCell>
        <mxCell id="n6P6MmhynRXJax2jx8tK-40" style="edgeStyle=orthogonalEdgeStyle;rounded=0;orthogonalLoop=1;jettySize=auto;html=1;entryX=0;entryY=0;entryDx=0;entryDy=27.5;entryPerimeter=0;fontColor=#143642;labelBackgroundColor=#DAD2D8;strokeColor=#A8201A;" parent="1" source="n6P6MmhynRXJax2jx8tK-26" target="n6P6MmhynRXJax2jx8tK-2" edge="1">
          <mxGeometry relative="1" as="geometry" />
        </mxCell>
        <mxCell id="n6P6MmhynRXJax2jx8tK-26" value="" style="html=1;verticalLabelPosition=bottom;align=center;verticalAlign=top;strokeWidth=2;strokeColor=#0F8B8D;shadow=0;dashed=0;shape=mxgraph.ios7.icons.data;fontColor=#143642;labelBackgroundColor=#DAD2D8;fillColor=#FAE5C7;" parent="1" vertex="1">
          <mxGeometry x="95" y="395" width="140" height="170" as="geometry" />
        </mxCell>
        <mxCell id="n6P6MmhynRXJax2jx8tK-29" value="&lt;b&gt;&lt;font color=&quot;#000000&quot;&gt;BDS Source&lt;/font&gt;&lt;/b&gt;" style="text;html=1;strokeColor=none;fillColor=none;align=center;verticalAlign=middle;whiteSpace=wrap;rounded=0;fontColor=#143642;" parent="1" vertex="1">
          <mxGeometry x="140" y="485" width="50" height="25" as="geometry" />
        </mxCell>
        <mxCell id="n6P6MmhynRXJax2jx8tK-31" value="" style="html=1;verticalLabelPosition=bottom;align=center;verticalAlign=top;strokeWidth=2;strokeColor=#0F8B8D;shadow=0;dashed=0;shape=mxgraph.ios7.icons.settings;fontColor=#143642;labelBackgroundColor=#DAD2D8;fillColor=#FAE5C7;" parent="1" vertex="1">
          <mxGeometry x="480" y="415" width="40" height="40" as="geometry" />
        </mxCell>
        <mxCell id="n6P6MmhynRXJax2jx8tK-32" value="" style="html=1;verticalLabelPosition=bottom;align=center;verticalAlign=top;strokeWidth=2;strokeColor=#0F8B8D;shadow=0;dashed=0;shape=mxgraph.ios7.icons.settings;fontColor=#143642;direction=south;labelBackgroundColor=#DAD2D8;fillColor=#FAE5C7;" parent="1" vertex="1">
          <mxGeometry x="460" y="455" width="40" height="50" as="geometry" />
        </mxCell>
        <mxCell id="n6P6MmhynRXJax2jx8tK-33" value="" style="html=1;verticalLabelPosition=bottom;align=center;verticalAlign=top;strokeWidth=2;strokeColor=#0F8B8D;shadow=0;dashed=0;shape=mxgraph.ios7.icons.data;fontColor=#143642;labelBackgroundColor=#DAD2D8;fillColor=#FAE5C7;" parent="1" vertex="1">
          <mxGeometry x="680" y="380" width="140" height="170" as="geometry" />
        </mxCell>
        <mxCell id="n6P6MmhynRXJax2jx8tK-37" value="IAS Target" style="text;html=1;align=center;verticalAlign=middle;whiteSpace=wrap;rounded=0;fontColor=#143642;fontStyle=1" parent="1" vertex="1">
          <mxGeometry x="740" y="475" width="40" height="20" as="geometry" />
        </mxCell>
        <mxCell id="n6P6MmhynRXJax2jx8tK-38" value="&lt;b&gt;SSIS ETL&lt;/b&gt;" style="text;html=1;strokeColor=none;fillColor=none;align=center;verticalAlign=middle;whiteSpace=wrap;rounded=0;fontColor=#143642;" parent="1" vertex="1">
          <mxGeometry x="450" y="495" width="120" height="45" as="geometry" />
        </mxCell>
      </root>
    </mxGraphModel>
  </diagram>
</mxfile>
